HIERARCHY
ROOT root
{
	OFFSET 0.000000 0.000000 0.000000
	CHANNELS 6 Xposition Yposition Zposition Zrotation Yrotation Xrotation
	JOINT lhip
	{
		OFFSET 0.058581 -0.082280 -0.017664
		CHANNELS 3 Zrotation Yrotation Xrotation
		JOINT lknee
		{
			OFFSET 0.043451 -0.386469 0.008037
			CHANNELS 3 Zrotation Yrotation Xrotation
			JOINT lankle
			{
				OFFSET -0.014790 -0.426874 -0.037428
				CHANNELS 3 Zrotation Yrotation Xrotation
				JOINT ltoe
				{
					OFFSET 0.041054 -0.060286 0.122042
					CHANNELS 3 Zrotation Yrotation Xrotation
					End Site
					{
						OFFSET 0.000000 0.000000 0.000000
					}
				}
			}
		}
	}
	JOINT rhip
	{
		OFFSET -0.060310 -0.090513 -0.013543
		CHANNELS 3 Zrotation Yrotation Xrotation
		JOINT rknee
		{
			OFFSET -0.043257 -0.383688 -0.004843
			CHANNELS 3 Zrotation Yrotation Xrotation
			JOINT rankle
			{
				OFFSET 0.019056 -0.420046 -0.034562
				CHANNELS 3 Zrotation Yrotation Xrotation
				JOINT rtoe
				{
					OFFSET -0.034840 -0.062106 0.130323
					CHANNELS 3 Zrotation Yrotation Xrotation
					End Site
					{
						OFFSET 0.000000 0.000000 0.000000
					}
				}
			}
		}
	}
	JOINT lowerback
	{
		OFFSET 0.004439 0.124404 -0.038385
		CHANNELS 3 Zrotation Yrotation Xrotation
		JOINT upperback
		{
			OFFSET 0.004488 0.137956 0.026820
			CHANNELS 3 Zrotation Yrotation Xrotation
			JOINT chest
			{
				OFFSET -0.002265 0.056032 0.002855
				CHANNELS 3 Zrotation Yrotation Xrotation
				JOINT lowerneck
				{
					OFFSET -0.013390 0.211636 -0.033468
					CHANNELS 3 Zrotation Yrotation Xrotation
					JOINT upperneck
					{
						OFFSET 0.010113 0.088937 0.050410
						CHANNELS 3 Zrotation Yrotation Xrotation
						End Site
						{
							OFFSET 0.000000 0.000000 0.000000
						}
					}
				}
				JOINT lclavicle
				{
					OFFSET 0.071702 0.114000 -0.018898
					CHANNELS 3 Zrotation Yrotation Xrotation
					JOINT lshoulder
					{
						OFFSET 0.122921 0.045205 -0.019046
						CHANNELS 3 Zrotation Yrotation Xrotation
						JOINT lelbow
						{
							OFFSET 0.255332 -0.015649 -0.022946
							CHANNELS 3 Zrotation Yrotation Xrotation
							JOINT lwrist
							{
								OFFSET 0.265709 0.012698 -0.007375
								CHANNELS 3 Zrotation Yrotation Xrotation
								End Site
								{
									OFFSET 0.000000 0.000000 0.000000
								}
							}
						}
					}
				}
				JOINT rclavicle
				{
					OFFSET -0.082954 0.112472 -0.023707
					CHANNELS 3 Zrotation Yrotation Xrotation
					JOINT rshoulder
					{
						OFFSET -0.113228 0.046853 -0.008472
						CHANNELS 3 Zrotation Yrotation Xrotation
						JOINT relbow
						{
							OFFSET -0.260127 -0.014369 -0.031269
							CHANNELS 3 Zrotation Yrotation Xrotation
							JOINT rwrist
							{
								OFFSET -0.269108 0.006794 -0.006027
								CHANNELS 3 Zrotation Yrotation Xrotation
								End Site
								{
									OFFSET 0.000000 0.000000 0.000000
								}
							}
						}
					}
				}
			}
		}
	}
}
MOTION
Frames: 10
Frame Time: 0.033333
2.227050 0.312149 0.990068 -89.054882 3.868740 93.864118 4.321994 -3.186454 -2.305487 -3.835535 -5.612164 -1.871026 11.077350 8.664888 -20.096158 0.000000 -0.000000 0.000000 1.199032 2.882979 -0.803840 5.450934 5.021898 -5.535671 2.166917 -4.641557 -2.350634 0.000000 -0.000000 0.000000 3.975347 2.217952 -1.496077 2.130442 -0.381134 3.941449 -0.646382 2.000804 0.869339 8.308023 25.665916 12.792387 5.265461 26.549279 10.124589 -30.148045 2.672254 8.698443 -59.539042 -1.423821 11.035566 18.068888 -28.551448 -1.376363 8.422472 -9.039728 -11.019966 27.894809 -2.273352 11.462309 57.503511 1.514655 8.210060 -20.435368 15.606696 -12.914481 -2.558218 9.642340 -16.349666 
2.226764 0.312286 0.989982 -88.883888 3.809310 93.670991 4.254033 -3.148934 -2.175768 -3.827817 -5.834108 -1.702106 11.023494 8.703446 -20.174727 0.000000 -0.000000 0.000000 1.172872 2.792823 -0.565232 5.448447 5.143868 -5.479447 2.289340 -4.850812 -2.523293 0.000000 -0.000000 0.000000 4.131792 2.006695 -1.844825 1.945525 -0.496540 3.894242 -0.548837 2.035059 0.871695 7.919412 26.288159 12.014646 5.048518 27.189542 9.932475 -30.017585 2.667761 9.063452 -59.484678 -0.891355 10.762537 17.639922 -28.577594 -0.527047 8.344613 -9.157317 -10.694399 27.782328 -2.448435 11.686369 58.015026 0.859758 7.893670 -20.549676 16.362541 -12.652570 -2.347755 9.817858 -16.993304 
2.226792 0.312565 0.990053 -88.782790 3.754070 93.438809 4.181346 -3.120406 -2.037691 -3.797559 -5.867294 -1.505237 10.978729 8.623362 -20.319666 0.000000 -0.000000 0.000000 1.160821 2.737773 -0.345196 5.452397 5.136781 -5.394503 2.222680 -4.855061 -2.645172 0.000000 -0.000000 0.000000 4.228922 1.958906 -2.202995 1.968548 -0.613372 3.990892 -0.594691 1.952996 0.774714 7.653317 26.682152 11.646309 4.576208 27.617974 9.463253 -30.081449 2.775174 9.313085 -59.127976 -0.498843 10.696984 17.104192 -29.061565 0.200809 7.634633 -9.621073 -10.476106 27.683553 -2.763280 11.691421 58.314213 0.502781 7.931379 -20.593233 17.486754 -12.370930 -1.837549 10.177046 -17.398930 
2.227113 0.312956 0.990239 -88.757671 3.679737 93.082109 4.084140 -3.043675 -1.799536 -3.763667 -5.895540 -1.293436 10.921043 8.543520 -20.445443 0.000000 -0.000000 0.000000 1.146445 2.684137 -0.056367 5.457208 5.150091 -5.244709 2.132928 -4.821500 -2.794205 0.000000 -0.000000 0.000000 4.325635 1.917269 -2.611004 2.000448 -0.738843 4.130470 -0.654270 1.872908 0.659248 7.454565 26.961002 11.357208 4.047880 27.932026 9.107109 -30.173328 2.762500 9.538920 -58.747973 -0.169963 10.737986 16.494521 -29.950157 1.059715 7.194871 -9.966420 -10.195405 27.616792 -2.871958 11.676952 58.563598 0.417722 8.094417 -20.714769 19.190732 -12.095182 -1.339031 10.532391 -17.843405 
2.227358 0.313274 0.990361 -88.791743 3.643261 92.823430 4.053458 -2.976361 -1.574473 -3.768159 -5.888863 -1.219157 10.892656 8.484326 -20.543048 0.000000 -0.000000 0.000000 1.140275 2.693531 0.146173 5.478481 5.143770 -5.122443 2.085934 -4.780359 -2.907407 0.000000 -0.000000 0.000000 4.400419 1.873583 -2.818821 2.006096 -0.789971 4.218664 -0.697546 1.815850 0.596924 7.408283 27.079798 11.209616 3.742025 28.069799 9.003708 -30.263471 2.712304 9.589828 -58.547759 -0.046129 10.784555 16.236053 -30.503978 1.385599 7.086116 -10.115484 -10.067291 27.642781 -2.742818 11.746779 58.642624 0.644798 8.292200 -20.864005 20.145332 -12.035189 -1.163497 10.683774 -17.977432 
2.227917 0.313783 0.990305 -88.849652 3.602496 92.454721 4.030686 -2.894304 -1.282927 -3.790845 -5.910590 -1.047390 10.794812 8.494362 -20.758585 0.000000 -0.000000 0.000000 1.123068 2.699213 0.348546 5.542787 5.153181 -4.791235 2.034192 -4.697017 -3.195512 0.000000 -0.000000 0.000000 4.511591 1.845042 -2.982427 2.015947 -0.816176 4.233647 -0.748650 1.775223 0.529016 7.410879 27.160981 10.912963 3.429930 28.059790 9.119036 -30.459567 2.451723 9.606950 -58.290048 -0.046364 10.927010 15.922965 -31.029756 1.662821 7.087524 -10.292112 -9.901133 27.786590 -2.402865 11.775563 58.548156 1.059898 8.599091 -21.003545 21.329325 -11.936741 -1.149763 10.863744 -18.070603 
2.228691 0.314494 0.990221 -88.989203 3.628374 92.111850 4.070122 -2.793330 -1.220835 -3.832122 -5.953463 -0.462844 10.670694 8.831371 -21.363786 0.000000 -0.000000 0.000000 1.206916 2.763001 0.282432 5.609762 5.272515 -4.036339 1.916920 -4.665128 -3.817456 0.000000 -0.000000 0.000000 4.688747 1.835651 -2.993287 2.016318 -0.735649 3.978183 -0.798146 1.790740 0.475489 7.569195 27.134685 10.466484 3.229901 27.791884 9.629882 -30.708702 2.053896 9.508993 -58.022454 -0.154385 11.111181 15.407973 -31.221458 1.994444 7.334200 -10.462013 -9.594234 28.002898 -1.947832 11.696538 58.304646 1.506347 8.909875 -20.956832 22.380349 -11.643194 -1.433259 11.033473 -17.932388 
2.229685 0.315674 0.990431 -89.174716 3.707368 91.666538 4.164901 -2.730047 -1.223472 -3.888059 -6.002472 0.496953 10.522803 9.295244 -22.294497 0.000000 -0.000000 0.000000 1.430178 2.884410 0.105720 5.643894 5.518281 -2.886967 1.679424 -4.740903 -4.690149 0.000000 -0.000000 0.000000 4.894592 1.824686 -2.653720 2.027995 -0.612259 3.546211 -0.842343 1.809396 0.319002 7.748502 26.941992 9.893584 3.064747 27.334499 10.271680 -31.227936 1.414124 9.367109 -57.493743 -0.289650 11.340860 14.687600 -31.069111 2.347449 7.704662 -10.721083 -8.983029 28.403625 -1.269895 11.511180 57.817419 1.886851 9.252585 -20.786810 23.235096 -11.412863 -2.013240 11.237451 -17.560080 
2.230585 0.317398 0.990803 -89.409578 3.768673 91.285306 4.281223 -2.800907 -1.051468 -3.896003 -5.977435 1.010358 10.336435 9.725079 -23.112043 0.000000 -0.000000 0.000000 1.729846 3.023933 -0.194457 5.585931 5.835050 -1.614084 1.407209 -4.844276 -5.574145 0.000000 -0.000000 0.000000 5.022484 1.814841 -2.307282 2.024427 -0.483547 3.140925 -0.876998 1.782250 0.033258 7.919831 26.546290 9.230621 2.910369 26.662704 10.886400 -31.894990 0.493949 9.369658 -56.793384 -0.400123 11.718477 13.988479 -30.622889 2.709108 8.068343 -11.028018 -8.168355 28.928412 -0.327487 11.472512 57.171496 2.366448 9.714086 -20.434921 23.828800 -11.190260 -2.754367 11.408166 -17.346003 
2.231197 0.320118 0.991262 -89.603074 3.825465 91.160957 4.497979 -2.816466 -1.175213 -3.961310 -5.900372 1.606566 10.098382 9.967913 -23.883984 0.000000 -0.000000 0.000000 2.176487 3.167664 -0.958748 5.434401 6.005133 0.056625 1.047902 -4.985971 -6.590266 0.000000 -0.000000 0.000000 4.961423 1.803786 -2.298357 2.070849 -0.409778 2.704350 -0.841711 1.639217 -0.457357 8.013534 25.524021 8.295734 2.743231 25.314110 11.603507 -32.605168 -0.938886 9.681422 -56.158641 -0.558528 12.413323 13.248417 -29.653725 3.429985 8.411997 -11.448314 -7.111792 29.568691 1.106801 11.710373 56.227214 3.109681 10.418707 -19.500428 24.330252 -10.495721 -3.544930 11.557210 -17.572051 
